<svg width="31" height="31" viewBox="0 0 31 31" fill="none" xmlns="http://www.w3.org/2000/svg">
<path fill-rule="evenodd" clip-rule="evenodd" d="M20.7019 5.64551H11.2626V3.16272C11.2626 1.96908 10.2936 1 9.09992 1C7.9063 1 6.93722 1.96908 6.93722 3.16272V5.64551H3.16272C1.96908 5.64551 1 6.61459 1 7.80824C1 9.00185 1.96908 9.97094 3.16272 9.97094H6.93722V19.4102H3.16272C1.96908 19.4102 1 20.3793 1 21.5729C1 22.7665 1.96908 23.7356 3.16272 23.7356H6.93722V28.5596C6.93722 29.7532 7.9063 30.7223 9.09992 30.7223C10.2936 30.7223 11.2626 29.7532 11.2626 28.5596V23.7356H20.7019V28.5596C20.7019 29.7532 21.6709 30.7223 22.8646 30.7223C24.0582 30.7223 25.0273 29.7532 25.0273 28.5596V23.7356H28.5596C29.7532 23.7356 30.7223 22.7665 30.7223 21.5729C30.7223 20.3793 29.7532 19.4102 28.5596 19.4102H25.0273V9.97094H28.5596C29.7532 9.97094 30.7223 9.00185 30.7223 7.80824C30.7223 6.61459 29.7532 5.64551 28.5596 5.64551H25.0273V3.16272C25.0273 1.96908 24.0582 1 22.8646 1C21.6709 1 20.7019 1.96908 20.7019 3.16272V5.64551ZM11.2626 9.97094V19.4102H20.7019V9.97094H11.2626Z" fill="black" stroke="#6216D0" stroke-width="0.00862867" stroke-miterlimit="1.5" stroke-linecap="round" stroke-linejoin="round"/>
</svg>
