<svg width="35" height="30" viewBox="0 0 35 30" fill="none" xmlns="http://www.w3.org/2000/svg">
<path d="M18.5 5.94385L5.30416 16.8225C5.30416 16.8378 5.3003 16.8604 5.29258 16.8912C5.28503 16.9217 5.28101 16.9439 5.28101 16.9597V27.9754C5.28101 28.3732 5.42642 28.7178 5.71716 29.0081C6.00783 29.2985 6.35203 29.4447 6.74984 29.4447H15.5622V20.6318H21.4379V29.445H30.2502C30.6479 29.445 30.9926 29.2992 31.2829 29.0081C31.5736 28.7182 31.7195 28.3732 31.7195 27.9754V16.9597C31.7195 16.8986 31.7112 16.8524 31.6964 16.8225L18.5 5.94385Z" fill="black"/>
<path d="M36.7447 14.3438L31.7191 10.167V0.803427C31.7191 0.589367 31.6503 0.413329 31.5122 0.275553C31.3752 0.137937 31.1991 0.0691294 30.9846 0.0691294H26.5783C26.364 0.0691294 26.1881 0.137937 26.0502 0.275553C25.9127 0.413329 25.844 0.589448 25.844 0.803427V5.27858L20.2443 0.596682C19.7553 0.198867 19.1738 0 18.5005 0C17.8273 0 17.2459 0.198867 16.7564 0.596682L0.255019 14.3438C0.10205 14.466 0.0182113 14.6305 0.00261706 14.8371C-0.0128968 15.0435 0.0405577 15.2238 0.163141 15.3767L1.586 17.075C1.70858 17.2126 1.86902 17.2968 2.06797 17.3276C2.25164 17.343 2.43532 17.2893 2.61899 17.167L18.5 3.92454L34.3813 17.1669C34.5039 17.2736 34.6643 17.3269 34.8632 17.3269H34.9322C35.1308 17.2967 35.2909 17.212 35.4142 17.0747L36.8372 15.3766C36.9595 15.2234 37.0131 15.0434 36.9972 14.8368C36.9816 14.6307 36.8974 14.4663 36.7447 14.3438Z" fill="black"/>
</svg>
