<svg width="37" height="27" viewBox="0 0 37 27" fill="none" xmlns="http://www.w3.org/2000/svg">
<path fill-rule="evenodd" clip-rule="evenodd" d="M0 7.62432V20.0536C0 23.6923 2.95399 26.6463 6.59255 26.6463H30.3443C33.9828 26.6463 36.937 23.6923 36.937 20.0536V8.08128L19.4131 12.7768C19.2806 12.8123 19.146 12.7854 19.0406 12.7142C19.0065 12.713 18.9722 12.708 18.938 12.6988L0 7.62432H0ZM0.0882924 5.78781C0.13531 5.78514 0.183531 5.78981 0.23135 5.80264L19.3211 10.9177L36.6057 6.28631C36.7124 6.25772 36.8206 6.26961 36.9137 6.31262C36.6315 2.934 33.7958 0.275879 30.3443 0.275879H6.59255C3.32185 0.275879 0.604289 2.66285 0.0882924 5.78781Z" fill="black"/>
</svg>
