<svg width="27" height="27" viewBox="0 0 27 27" fill="none" xmlns="http://www.w3.org/2000/svg">
<path fill-rule="evenodd" clip-rule="evenodd" d="M9.12342 21.9755C4.49064 22.0812 -1.79787 22.0851 0.482758 21.2283C2.85037 20.3389 4.05664 10.0161 4.05664 10.0161C4.05664 4.82051 8.22835 0.591641 13.4019 0.499259V0.497681H13.575V0.499259C18.7486 0.591641 22.9203 4.82051 22.9203 10.0161C22.9203 10.0161 24.1265 20.3389 26.4941 21.2283C28.7749 22.0851 22.4863 22.0812 17.8535 21.9755C17.854 22.002 17.8542 22.0287 17.8542 22.0554C17.8542 24.465 15.898 26.4212 13.4885 26.4212C11.0789 26.4212 9.12267 24.465 9.12267 22.0554C9.12267 22.0287 9.12292 22.002 9.12342 21.9755Z" fill="black"/>
</svg>
