<svg width="24" height="28" viewBox="0 0 24 28" fill="none" xmlns="http://www.w3.org/2000/svg">
<path fill-rule="evenodd" clip-rule="evenodd" d="M17.5451 15.7373H17.6011C20.9806 15.7373 23.7244 18.4811 23.7244 21.8606V24.9223C23.7244 26.612 22.3525 27.9838 20.6628 27.9838H3.06169C1.37189 27.9838 0 26.612 0 24.9223V21.8606C0 18.4811 2.74379 15.7373 6.12327 15.7373H6.17927C7.57522 17.2996 9.60474 18.2834 11.8622 18.2834C14.1197 18.2834 16.1492 17.2996 17.5451 15.7373Z" fill="black"/>
<path d="M11.6323 15.2392C15.8405 15.2392 19.2519 11.8278 19.2519 7.61962C19.2519 3.41142 15.8405 0 11.6323 0C7.42411 0 4.0127 3.41142 4.0127 7.61962C4.0127 11.8278 7.42411 15.2392 11.6323 15.2392Z" fill="black"/>
</svg>
